# xmcd
#
# Track frame offsets:
#	150
#	15272
#	28511
#	53975
#	80133
#	97029
#	109815
#	119118
#	136042
#	173069
#	188376
#	203657
#	236612
#	247017
#	296385
#	306499
#
# Disc length: 4280 seconds
#
# Revision: 0
# Processed by: cddbd v1.5.2PL0 Copyright (c) Steve Scherf et al.
# Submitted via: dBpowerAMP V4.0
#
DISCID=d910b610
DTITLE=Canned Heat - The Collection
DYEAR=2008
DGENRE=Blues
TTITLE0=On The Road Again
TTITLE1=Going Up The Country
TTITLE2=Aphetamine Annie
TTITLE3=Dust My Broom
TTITLE4=Hell's On Down The Line
TTITLE5=Same All Over
TTITLE6=Rolling and Tumbling
TTITLE7=Let's Work Together
TTITLE8=Wish You Would (Strut My Stuff)
TTITLE9=Kings Of The Boogie
TTITLE10=Chicken Shack Boogie
TTITLE11=Bullfrog Blues
TTITLE12=Spoonful
TTITLE13=Sweet Sixteen
TTITLE14=I've Got My Eyes On You
TTITLE15=So Long
EXTD=
EXTT0=
EXTT1=
EXTT2=
EXTT3=
EXTT4=
EXTT5=
EXTT6=
EXTT7=
EXTT8=
EXTT9=
EXTT10=
EXTT11=
EXTT12=
EXTT13=
EXTT14=
EXTT15=
PLAYORDER=
